<svg xmlns="http://www.w3.org/2000/svg" viewBox="0 0 55.012 55.012" width="512" height="512"><path d="M30.009 41.008v-19h-4v19l-6-5-3 3 11 10 10-10-3-3-5 5zM45.207 19.9c-1.17-5.648-4.598-8.892-9.199-8.892-1.319 0-2.879.308-4.333.852-3.163-4.176-6.8-5.856-10.205-5.856-6.825 0-12.722 6.746-12.028 13.67.021.211.025.412.032.621-4.453.977-9.716 5.574-9.465 10.713.251 5.139 3.761 10.955 9.399 10.955l3.601.045v-4l-3.601-.037c-3.541 0-5.27-4.319-5.399-6.963-.146-2.989 3.551-6.205 6.327-6.814l3.252-.714-.11-3.316-.003-.084c-.008-.268-.019-.53-.047-.803-.224-2.233.647-4.672 2.33-6.525 1.591-1.751 3.672-2.756 5.712-2.756 4.253 0 6.823 4.024 8.812 6.649l2.802-1.048c4.391-1.642 7.24.474 8.2 5.109l.725 3.301h3c2.685 0 6.092 2.547 6 6-.105 3.925-3.766 7.963-7.226 7.963l-1.774.037v4l1.774-.045c5.931 0 11.072-6.196 11.226-11.955.153-5.759-4.922-10.107-9.802-10.107z" fill="#FFF"/></svg>